<svg width="288" height="156" viewBox="0 0 288 156" fill="none" xmlns="http://www.w3.org/2000/svg">
<path d="M-35.9999 20.119C-19.4827 7.60492 1.70539 8.70148 17.2891 17.8712C32.8728 27.0408 43.8344 43.0356 53.4934 59.3812C63.1524 75.7268 72.0383 93.0019 84.8735 106.188C97.7087 119.375 115.458 128.19 134.219 124.316C147.124 121.646 160.211 113.167 172.558 115.442C183.729 117.505 191.069 127.8 198.213 136.939C205.357 146.077 214.513 155.166 226.182 153.785C238.031 152.38 248.444 139.93 252.19 126.856C255.935 113.782 254.312 100.368 251.504 88.0286C248.696 75.6893 244.733 63.7338 243.843 50.7531C242.952 37.7724 245.655 23.1278 254.275 12.7386C262.895 2.34944 278.317 -1.49129 286.097 7.2102" stroke="#0073DF" stroke-width="3.00923" stroke-miterlimit="10" stroke-linecap="round" stroke-dasharray="6.3 11.82"/>
</svg>
