<svg width="326" height="155" viewBox="0 0 326 155" fill="none" xmlns="http://www.w3.org/2000/svg">
<path d="M1.99983 19.3621C18.5171 6.84808 39.7051 7.94465 55.2888 17.1143C70.8725 26.284 81.8341 42.2787 91.4932 58.6243C101.152 74.9699 110.038 92.2451 122.873 105.432C135.708 118.618 153.458 127.433 172.219 123.559C185.124 120.89 198.21 112.41 210.558 114.685C221.729 116.748 229.069 127.043 236.213 136.182C243.357 145.32 252.513 154.409 264.182 153.029C276.03 151.623 286.444 139.173 290.19 126.099C293.935 113.025 292.312 99.6109 289.504 87.2717C286.695 74.9325 282.733 62.977 281.842 49.9963C280.952 37.0156 283.655 22.3709 292.275 11.9818C300.895 1.5926 316.317 -2.24812 324.097 6.45336" stroke="#0073DF" stroke-width="3.00923" stroke-miterlimit="10" stroke-linecap="round" stroke-dasharray="6.3 11.82"/>
</svg>
